<?xml version="1.0" encoding="UTF-8" standalone="no"?>
<svg
   id="Ebene_1"
   data-name="Ebene 1"
   viewBox="0 0 283.46 95.73"
   width="283.46"
   height="95.73"
   version="1.1"
   sodipodi:docname="Collini Logo.svg"
   xml:space="preserve"
   inkscape:version="1.2 (dc2aedaf03, 2022-05-15)"
   xmlns:inkscape="http://www.inkscape.org/namespaces/inkscape"
   xmlns:sodipodi="http://sodipodi.sourceforge.net/DTD/sodipodi-0.dtd"
   xmlns="http://www.w3.org/2000/svg"
   xmlns:svg="http://www.w3.org/2000/svg"
   xmlns:rdf="http://www.w3.org/1999/02/22-rdf-syntax-ns#"
   xmlns:cc="http://creativecommons.org/ns#"
   xmlns:dc="http://purl.org/dc/elements/1.1/"><sodipodi:namedview
     id="namedview21"
     pagecolor="#ffffff"
     bordercolor="#666666"
     borderopacity="1.0"
     inkscape:showpageshadow="2"
     inkscape:pageopacity="0.0"
     inkscape:pagecheckerboard="0"
     inkscape:deskcolor="#d1d1d1"
     showgrid="false"
     inkscape:zoom="0.6163167"
     inkscape:cx="150.89645"
     inkscape:cy="260.41806"
     inkscape:window-width="1680"
     inkscape:window-height="988"
     inkscape:window-x="-8"
     inkscape:window-y="-8"
     inkscape:window-maximized="1"
     inkscape:current-layer="Ebene_1" /><defs
     id="defs2" /><title
     id="title4">logo-collini</title><path
     class="cls-1"
     d="M34.67,82.36C14.83,82.36,0,70.52,0,49.68,0,30,16,17,34.67,17A71.82,71.82,0,0,1,50.6,19.1L50,31.83a36.61,36.61,0,0,0-12.1-2.37c-11.38,0-19.2,8.76-19.2,20.22,0,11.82,7.19,20.21,18.84,20.21a33.43,33.43,0,0,0,12.65-2.45l.55,12.46a50.74,50.74,0,0,1-16.11,2.46"
     fill="#FFFFFF"
     id="path6"
     style="fill:#000000" /><path
     class="cls-1"
     d="M84,82.36c-15.83,0-25.63-8.37-25.63-24.2C58.41,42,69.48,34.49,84,34.49c15.2,0,25.63,7.29,25.63,23.66,0,15.92-10.17,24.2-25.63,24.2Zm0-37.22c-7.35,0-8.76,7.37-8.76,13,0,6.64,1.41,13.46,8.76,13.46s8.76-6.73,8.76-13.46c0-5.65-1.4-13-8.76-13"
     fill="#FFFFFF"
     id="path8"
     style="fill:#000000" /><path
     class="cls-1"
     d="M237.59,81.35V54.79c0-4.19-.46-8.83-5.83-8.83s-6.82,5.09-6.82,9.65V81.35H208.11V35.4h15.56l.18,7.56c2.82-5.74,8.73-8.47,14.92-8.47,10.56,0,15.65,5.92,15.65,16.29V81.35H237.59"
     fill="#FFFFFF"
     id="path10"
     style="fill:#000000" /><path
     class="cls-1"
     d="M266.63,28V15h16.83V28Zm0,53.32V35.4h16.83V81.35H266.63"
     fill="#FFFFFF"
     id="path12"
     style="fill:#000000" /><path
     class="cls-1"
     d="M179.06,28V15h16.83V28Zm0,53.32V35.4h16.83V81.35H179.06"
     fill="#FFFFFF"
     id="path14"
     style="fill:#000000" /><polygon
     class="cls-1"
     points="136.68 10.21 119.77 22.6 119.77 95.73 136.68 81.97 136.68 10.21"
     fill="#FFFFFF"
     id="polygon16"
     style="fill:#000000" /><polyline
     class="cls-1"
     points="148.42 12.65 148.42 85.79 165.23 71.37 165.23 0 148.42 12.65"
     fill="#FFFFFF"
     id="polyline18"
     style="fill:#0970b7;fill-opacity:1" /><metadata
     id="metadata2899"><rdf:RDF><cc:Work
         rdf:about=""><dc:title>logo-collini</dc:title></cc:Work></rdf:RDF></metadata></svg>
